<?xml version="1.0" encoding="UTF-8" standalone="no"?>
<!DOCTYPE svg PUBLIC "-//W3C//DTD SVG 1.1//EN" "http://www.w3.org/Graphics/SVG/1.1/DTD/svg11.dtd">
<svg width="100%" height="100%" viewBox="0 0 624 295" version="1.1" xmlns="http://www.w3.org/2000/svg" xmlns:xlink="http://www.w3.org/1999/xlink" xml:space="preserve" xmlns:serif="http://www.serif.com/" style="fill-rule:evenodd;clip-rule:evenodd;stroke-linejoin:round;stroke-miterlimit:2;">
    <g id="Artboard1" transform="matrix(0.955015,0,0,1.03654,-80.1983,-32.6362)">
        <rect x="83.976" y="31.486" width="652.512" height="283.901" style="fill:none;"/>
        <g transform="matrix(1.0471,0,0,0.964745,22.4986,34.3027)">
            <g transform="matrix(144,0,0,144,61.5991,108.864)">
                <path d="M0.201,-0.31L0.201,-0L0.18,-0L0.18,-0.31L0.007,-0.708L0.03,-0.708L0.191,-0.336L0.353,-0.708L0.377,-0.708L0.201,-0.31Z" style="fill-rule:nonzero;"/>
            </g>
            <g transform="matrix(144,0,0,144,109.119,108.864)">
                <path d="M0.354,-0.241C0.354,-0.204 0.35,-0.169 0.344,-0.138C0.337,-0.106 0.327,-0.079 0.314,-0.056C0.301,-0.033 0.285,-0.016 0.266,-0.003C0.247,0.01 0.226,0.016 0.203,0.016C0.18,0.016 0.159,0.01 0.14,-0.003C0.121,-0.016 0.106,-0.033 0.093,-0.056C0.08,-0.079 0.069,-0.106 0.063,-0.138C0.056,-0.169 0.052,-0.204 0.052,-0.241C0.052,-0.279 0.055,-0.314 0.062,-0.345C0.069,-0.376 0.078,-0.404 0.091,-0.427C0.104,-0.45 0.12,-0.467 0.139,-0.48C0.158,-0.493 0.179,-0.499 0.203,-0.499C0.226,-0.499 0.247,-0.493 0.266,-0.48C0.285,-0.467 0.301,-0.45 0.314,-0.427C0.327,-0.404 0.337,-0.376 0.344,-0.345C0.35,-0.314 0.354,-0.279 0.354,-0.241ZM0.332,-0.241C0.332,-0.275 0.329,-0.307 0.324,-0.336C0.318,-0.365 0.31,-0.39 0.299,-0.411C0.288,-0.432 0.275,-0.449 0.259,-0.462C0.242,-0.474 0.224,-0.48 0.203,-0.48C0.182,-0.48 0.163,-0.474 0.147,-0.462C0.13,-0.449 0.117,-0.432 0.106,-0.411C0.095,-0.39 0.087,-0.365 0.082,-0.336C0.077,-0.307 0.074,-0.275 0.074,-0.241C0.074,-0.208 0.077,-0.177 0.082,-0.148C0.087,-0.119 0.095,-0.094 0.106,-0.073C0.117,-0.052 0.13,-0.035 0.147,-0.023C0.163,-0.01 0.182,-0.004 0.203,-0.004C0.224,-0.004 0.243,-0.01 0.259,-0.023C0.275,-0.035 0.289,-0.052 0.3,-0.073C0.311,-0.094 0.319,-0.119 0.324,-0.148C0.329,-0.177 0.332,-0.208 0.332,-0.241Z" style="fill-rule:nonzero;"/>
            </g>
            <g transform="matrix(144,0,0,144,167.583,108.864)">
                <path d="M0.323,-0.122C0.316,-0.08 0.301,-0.047 0.279,-0.022C0.257,0.003 0.229,0.016 0.196,0.016C0.17,0.016 0.15,0.01 0.135,-0.002C0.12,-0.013 0.108,-0.028 0.1,-0.046C0.092,-0.063 0.087,-0.083 0.085,-0.104C0.082,-0.125 0.081,-0.144 0.081,-0.163L0.081,-0.483L0.103,-0.483L0.103,-0.163C0.103,-0.146 0.104,-0.128 0.106,-0.109C0.108,-0.09 0.112,-0.072 0.119,-0.057C0.126,-0.042 0.135,-0.029 0.148,-0.019C0.16,-0.009 0.176,-0.004 0.196,-0.004C0.217,-0.004 0.236,-0.01 0.252,-0.023C0.268,-0.035 0.281,-0.051 0.292,-0.07C0.303,-0.089 0.311,-0.111 0.316,-0.135C0.321,-0.158 0.324,-0.181 0.324,-0.203L0.324,-0.483L0.346,-0.483L0.346,-0.122C0.346,-0.114 0.346,-0.105 0.347,-0.094L0.349,-0.026C0.349,-0.015 0.349,-0.007 0.35,-0L0.328,-0C0.327,-0.007 0.327,-0.015 0.327,-0.026C0.326,-0.037 0.326,-0.048 0.326,-0.06C0.325,-0.071 0.325,-0.083 0.325,-0.094L0.325,-0.122L0.323,-0.122Z" style="fill-rule:nonzero;"/>
            </g>
            <g transform="matrix(144,0,0,144,229.935,108.864)">
                <path d="M0.087,-0.361C0.087,-0.369 0.087,-0.379 0.087,-0.39L0.085,-0.457C0.084,-0.468 0.084,-0.476 0.083,-0.483L0.105,-0.483C0.106,-0.476 0.106,-0.468 0.107,-0.458C0.107,-0.447 0.107,-0.436 0.108,-0.425C0.108,-0.413 0.108,-0.402 0.108,-0.391L0.108,-0.363L0.111,-0.363C0.12,-0.41 0.135,-0.444 0.155,-0.464C0.174,-0.483 0.196,-0.493 0.22,-0.493C0.225,-0.493 0.229,-0.493 0.232,-0.492L0.232,-0.472C0.231,-0.473 0.229,-0.473 0.226,-0.473L0.22,-0.473C0.201,-0.473 0.185,-0.466 0.171,-0.453C0.157,-0.44 0.146,-0.422 0.137,-0.401C0.128,-0.38 0.121,-0.356 0.116,-0.33C0.111,-0.303 0.109,-0.277 0.109,-0.25L0.109,-0L0.087,-0L0.087,-0.361Z" style="fill-rule:nonzero;"/>
            </g>
            <g transform="matrix(144,0,0,144,289.839,108.864)">
                <path d="M0.108,-0.367C0.116,-0.406 0.13,-0.437 0.152,-0.462C0.172,-0.487 0.2,-0.499 0.233,-0.499C0.256,-0.499 0.277,-0.493 0.296,-0.48C0.314,-0.467 0.329,-0.45 0.342,-0.427C0.355,-0.404 0.364,-0.376 0.371,-0.345C0.378,-0.314 0.381,-0.279 0.381,-0.241C0.381,-0.204 0.378,-0.169 0.372,-0.138C0.365,-0.106 0.356,-0.079 0.344,-0.056C0.331,-0.033 0.316,-0.016 0.297,-0.003C0.278,0.01 0.257,0.016 0.233,0.016C0.201,0.016 0.174,0.005 0.153,-0.019C0.132,-0.042 0.117,-0.073 0.108,-0.112L0.107,-0.112L0.107,0.24L0.085,0.24L0.085,-0.483L0.107,-0.483L0.107,-0.367L0.108,-0.367ZM0.106,-0.241C0.106,-0.208 0.109,-0.177 0.114,-0.148C0.119,-0.119 0.127,-0.093 0.138,-0.072C0.149,-0.051 0.162,-0.034 0.178,-0.022C0.193,-0.009 0.212,-0.003 0.233,-0.003C0.254,-0.003 0.273,-0.009 0.289,-0.022C0.305,-0.034 0.318,-0.051 0.329,-0.072C0.339,-0.093 0.347,-0.119 0.352,-0.148C0.357,-0.177 0.359,-0.208 0.359,-0.241C0.359,-0.274 0.357,-0.306 0.352,-0.335C0.347,-0.364 0.339,-0.389 0.329,-0.41C0.318,-0.431 0.305,-0.448 0.289,-0.461C0.273,-0.473 0.254,-0.479 0.233,-0.479C0.212,-0.479 0.193,-0.473 0.177,-0.461C0.161,-0.448 0.148,-0.431 0.138,-0.41C0.127,-0.389 0.119,-0.364 0.114,-0.335C0.109,-0.306 0.106,-0.274 0.106,-0.241Z" style="fill-rule:nonzero;"/>
            </g>
            <g transform="matrix(144,0,0,144,352.191,108.864)">
                <path d="M0.074,-0.247C0.074,-0.212 0.077,-0.179 0.082,-0.149C0.087,-0.119 0.094,-0.093 0.106,-0.072C0.116,-0.051 0.13,-0.034 0.147,-0.022C0.163,-0.01 0.183,-0.004 0.206,-0.004C0.234,-0.004 0.257,-0.012 0.274,-0.029C0.291,-0.046 0.304,-0.066 0.313,-0.089L0.329,-0.08C0.32,-0.055 0.305,-0.032 0.285,-0.013C0.264,0.006 0.238,0.016 0.206,0.016C0.181,0.016 0.159,0.01 0.14,-0.003C0.121,-0.015 0.105,-0.032 0.092,-0.055C0.079,-0.077 0.069,-0.104 0.062,-0.136C0.055,-0.167 0.052,-0.202 0.052,-0.241C0.052,-0.278 0.055,-0.312 0.062,-0.344C0.069,-0.375 0.078,-0.403 0.091,-0.426C0.104,-0.448 0.119,-0.467 0.138,-0.48C0.157,-0.493 0.178,-0.499 0.203,-0.499C0.229,-0.499 0.251,-0.493 0.269,-0.481C0.286,-0.468 0.301,-0.452 0.312,-0.431C0.323,-0.41 0.33,-0.386 0.335,-0.359C0.34,-0.332 0.342,-0.303 0.342,-0.273L0.342,-0.247L0.074,-0.247ZM0.322,-0.267C0.322,-0.299 0.32,-0.328 0.315,-0.354C0.31,-0.38 0.302,-0.402 0.293,-0.421C0.283,-0.44 0.271,-0.454 0.256,-0.465C0.241,-0.475 0.223,-0.48 0.203,-0.48C0.179,-0.48 0.159,-0.472 0.143,-0.457C0.126,-0.442 0.113,-0.423 0.103,-0.401C0.092,-0.379 0.085,-0.356 0.081,-0.331C0.076,-0.306 0.074,-0.285 0.074,-0.267L0.322,-0.267Z" style="fill-rule:nonzero;"/>
            </g>
            <g transform="matrix(144,0,0,144,407.919,108.864)">
                <path d="M0.087,-0.361C0.087,-0.369 0.087,-0.379 0.087,-0.39L0.085,-0.457C0.084,-0.468 0.084,-0.476 0.083,-0.483L0.105,-0.483C0.106,-0.476 0.106,-0.468 0.107,-0.458C0.107,-0.447 0.107,-0.436 0.108,-0.425C0.108,-0.413 0.108,-0.402 0.108,-0.391L0.108,-0.363L0.111,-0.363C0.12,-0.41 0.135,-0.444 0.155,-0.464C0.174,-0.483 0.196,-0.493 0.22,-0.493C0.225,-0.493 0.229,-0.493 0.232,-0.492L0.232,-0.472C0.231,-0.473 0.229,-0.473 0.226,-0.473L0.22,-0.473C0.201,-0.473 0.185,-0.466 0.171,-0.453C0.157,-0.44 0.146,-0.422 0.137,-0.401C0.128,-0.38 0.121,-0.356 0.116,-0.33C0.111,-0.303 0.109,-0.277 0.109,-0.25L0.109,-0L0.087,-0L0.087,-0.361Z" style="fill-rule:nonzero;"/>
            </g>
            <g transform="matrix(144,0,0,144,441.903,108.864)">
                <path d="M0.264,-0.124C0.264,-0.083 0.254,-0.049 0.235,-0.023C0.215,0.003 0.187,0.016 0.151,0.016C0.095,0.016 0.056,-0.011 0.035,-0.066L0.051,-0.078C0.072,-0.029 0.106,-0.004 0.152,-0.004C0.179,-0.004 0.201,-0.015 0.218,-0.036C0.234,-0.057 0.242,-0.086 0.242,-0.122C0.242,-0.143 0.239,-0.16 0.232,-0.174C0.225,-0.187 0.217,-0.198 0.207,-0.207C0.197,-0.216 0.186,-0.223 0.175,-0.228C0.163,-0.233 0.152,-0.238 0.142,-0.243C0.13,-0.248 0.119,-0.253 0.109,-0.26C0.098,-0.267 0.089,-0.275 0.082,-0.285C0.074,-0.295 0.068,-0.307 0.064,-0.32C0.059,-0.333 0.057,-0.35 0.057,-0.369C0.057,-0.387 0.06,-0.404 0.066,-0.42C0.071,-0.435 0.079,-0.449 0.089,-0.461C0.099,-0.473 0.111,-0.482 0.124,-0.489C0.137,-0.496 0.151,-0.499 0.166,-0.499C0.191,-0.499 0.213,-0.493 0.23,-0.48C0.247,-0.467 0.26,-0.451 0.269,-0.43L0.253,-0.419C0.234,-0.459 0.205,-0.479 0.166,-0.479C0.141,-0.479 0.121,-0.469 0.104,-0.448C0.087,-0.427 0.079,-0.401 0.079,-0.37C0.079,-0.353 0.081,-0.339 0.085,-0.328C0.088,-0.316 0.093,-0.306 0.101,-0.298C0.108,-0.289 0.116,-0.282 0.126,-0.276C0.136,-0.27 0.148,-0.264 0.161,-0.259C0.173,-0.254 0.185,-0.247 0.198,-0.241C0.21,-0.234 0.221,-0.225 0.231,-0.215C0.241,-0.204 0.249,-0.192 0.255,-0.177C0.261,-0.162 0.264,-0.145 0.264,-0.124Z" style="fill-rule:nonzero;"/>
            </g>
            <g transform="matrix(144,0,0,144,486.543,108.864)">
                <path d="M0.354,-0.241C0.354,-0.204 0.35,-0.169 0.344,-0.138C0.337,-0.106 0.327,-0.079 0.314,-0.056C0.301,-0.033 0.285,-0.016 0.266,-0.003C0.247,0.01 0.226,0.016 0.203,0.016C0.18,0.016 0.159,0.01 0.14,-0.003C0.121,-0.016 0.106,-0.033 0.093,-0.056C0.08,-0.079 0.069,-0.106 0.063,-0.138C0.056,-0.169 0.052,-0.204 0.052,-0.241C0.052,-0.279 0.055,-0.314 0.062,-0.345C0.069,-0.376 0.078,-0.404 0.091,-0.427C0.104,-0.45 0.12,-0.467 0.139,-0.48C0.158,-0.493 0.179,-0.499 0.203,-0.499C0.226,-0.499 0.247,-0.493 0.266,-0.48C0.285,-0.467 0.301,-0.45 0.314,-0.427C0.327,-0.404 0.337,-0.376 0.344,-0.345C0.35,-0.314 0.354,-0.279 0.354,-0.241ZM0.332,-0.241C0.332,-0.275 0.329,-0.307 0.324,-0.336C0.318,-0.365 0.31,-0.39 0.299,-0.411C0.288,-0.432 0.275,-0.449 0.259,-0.462C0.242,-0.474 0.224,-0.48 0.203,-0.48C0.182,-0.48 0.163,-0.474 0.147,-0.462C0.13,-0.449 0.117,-0.432 0.106,-0.411C0.095,-0.39 0.087,-0.365 0.082,-0.336C0.077,-0.307 0.074,-0.275 0.074,-0.241C0.074,-0.208 0.077,-0.177 0.082,-0.148C0.087,-0.119 0.095,-0.094 0.106,-0.073C0.117,-0.052 0.13,-0.035 0.147,-0.023C0.163,-0.01 0.182,-0.004 0.203,-0.004C0.224,-0.004 0.243,-0.01 0.259,-0.023C0.275,-0.035 0.289,-0.052 0.3,-0.073C0.311,-0.094 0.319,-0.119 0.324,-0.148C0.329,-0.177 0.332,-0.208 0.332,-0.241Z" style="fill-rule:nonzero;"/>
            </g>
            <g transform="matrix(144,0,0,144,545.007,108.864)">
                <path d="M0.11,-0.361C0.117,-0.403 0.132,-0.436 0.154,-0.462C0.176,-0.487 0.204,-0.499 0.237,-0.499C0.263,-0.499 0.284,-0.493 0.299,-0.482C0.314,-0.47 0.325,-0.455 0.333,-0.438C0.341,-0.42 0.346,-0.401 0.349,-0.38C0.351,-0.359 0.352,-0.339 0.352,-0.32L0.352,-0L0.33,-0L0.33,-0.32C0.33,-0.337 0.329,-0.355 0.327,-0.374C0.325,-0.393 0.321,-0.41 0.314,-0.426C0.307,-0.441 0.298,-0.454 0.286,-0.464C0.273,-0.474 0.257,-0.479 0.237,-0.479C0.216,-0.479 0.197,-0.473 0.181,-0.461C0.165,-0.448 0.152,-0.432 0.141,-0.413C0.13,-0.394 0.122,-0.372 0.117,-0.349C0.112,-0.325 0.109,-0.302 0.109,-0.28L0.109,-0L0.087,-0L0.087,-0.361C0.087,-0.369 0.087,-0.379 0.087,-0.39L0.085,-0.457C0.084,-0.468 0.084,-0.476 0.083,-0.483L0.105,-0.483C0.106,-0.476 0.106,-0.468 0.107,-0.457C0.107,-0.446 0.107,-0.435 0.108,-0.424C0.108,-0.412 0.108,-0.401 0.108,-0.39L0.108,-0.361L0.11,-0.361Z" style="fill-rule:nonzero;"/>
            </g>
            <g transform="matrix(144,0,0,144,607.359,108.864)">
                <path d="M0.303,-0.11C0.303,-0.091 0.304,-0.072 0.305,-0.051C0.306,-0.03 0.308,-0.013 0.309,-0L0.288,-0C0.287,-0.007 0.287,-0.015 0.286,-0.026C0.285,-0.036 0.285,-0.047 0.285,-0.058C0.284,-0.068 0.284,-0.079 0.284,-0.089C0.283,-0.099 0.283,-0.108 0.283,-0.115L0.281,-0.115C0.272,-0.071 0.256,-0.039 0.235,-0.018C0.214,0.003 0.188,0.013 0.159,0.013C0.146,0.013 0.133,0.01 0.12,0.005C0.107,-0 0.095,-0.009 0.084,-0.021C0.073,-0.032 0.065,-0.047 0.059,-0.064C0.052,-0.081 0.049,-0.102 0.049,-0.126C0.049,-0.16 0.055,-0.187 0.067,-0.208C0.079,-0.229 0.094,-0.245 0.112,-0.257C0.13,-0.268 0.149,-0.276 0.17,-0.28C0.191,-0.283 0.209,-0.285 0.226,-0.285L0.281,-0.285L0.281,-0.323C0.281,-0.377 0.272,-0.417 0.253,-0.442C0.234,-0.467 0.209,-0.479 0.178,-0.479C0.159,-0.479 0.141,-0.474 0.125,-0.464C0.108,-0.453 0.094,-0.439 0.083,-0.422L0.068,-0.436C0.08,-0.455 0.096,-0.471 0.117,-0.482C0.138,-0.493 0.158,-0.499 0.178,-0.499C0.217,-0.499 0.248,-0.485 0.27,-0.456C0.292,-0.427 0.303,-0.383 0.303,-0.322L0.303,-0.11ZM0.281,-0.265L0.232,-0.265C0.214,-0.265 0.196,-0.263 0.177,-0.26C0.158,-0.257 0.14,-0.25 0.125,-0.24C0.109,-0.23 0.096,-0.216 0.086,-0.198C0.076,-0.18 0.071,-0.156 0.071,-0.126C0.071,-0.104 0.074,-0.086 0.08,-0.071C0.085,-0.056 0.092,-0.043 0.101,-0.034C0.11,-0.025 0.119,-0.018 0.13,-0.014C0.141,-0.009 0.151,-0.007 0.161,-0.007C0.184,-0.007 0.204,-0.014 0.219,-0.027C0.234,-0.04 0.247,-0.056 0.256,-0.077C0.265,-0.098 0.272,-0.121 0.276,-0.146C0.279,-0.17 0.281,-0.195 0.281,-0.218L0.281,-0.265Z" style="fill-rule:nonzero;"/>
            </g>
            <g transform="matrix(144,0,0,144,661.791,108.864)">
                <rect x="0.085" y="-0.756" width="0.022" height="0.756" style="fill-rule:nonzero;"/>
            </g>
            <g transform="matrix(144,0,0,144,150.015,252.864)">
                <path d="M0.2,0.016C0.177,0.016 0.156,0.01 0.138,-0.003C0.119,-0.016 0.104,-0.033 0.091,-0.056C0.078,-0.079 0.069,-0.106 0.062,-0.138C0.055,-0.169 0.052,-0.204 0.052,-0.241C0.052,-0.279 0.055,-0.314 0.062,-0.345C0.068,-0.376 0.077,-0.404 0.09,-0.427C0.102,-0.45 0.117,-0.467 0.136,-0.48C0.155,-0.493 0.176,-0.499 0.2,-0.499C0.232,-0.499 0.259,-0.487 0.28,-0.464C0.301,-0.441 0.316,-0.409 0.325,-0.37L0.326,-0.37L0.326,-0.756L0.348,-0.756L0.348,-0L0.326,-0L0.326,-0.114L0.325,-0.114C0.317,-0.076 0.303,-0.045 0.282,-0.021C0.261,0.004 0.233,0.016 0.2,0.016ZM0.327,-0.241C0.327,-0.275 0.324,-0.307 0.319,-0.336C0.314,-0.365 0.306,-0.39 0.295,-0.411C0.284,-0.432 0.271,-0.449 0.255,-0.462C0.239,-0.474 0.221,-0.48 0.2,-0.48C0.179,-0.48 0.16,-0.474 0.144,-0.462C0.128,-0.449 0.115,-0.432 0.105,-0.411C0.094,-0.39 0.087,-0.365 0.082,-0.336C0.077,-0.307 0.074,-0.275 0.074,-0.241C0.074,-0.208 0.077,-0.177 0.082,-0.148C0.087,-0.119 0.094,-0.094 0.105,-0.073C0.115,-0.052 0.128,-0.035 0.144,-0.023C0.16,-0.01 0.179,-0.004 0.2,-0.004C0.221,-0.004 0.24,-0.01 0.256,-0.023C0.272,-0.035 0.285,-0.052 0.296,-0.073C0.306,-0.094 0.314,-0.119 0.319,-0.148C0.324,-0.177 0.327,-0.208 0.327,-0.241Z" style="fill-rule:nonzero;"/>
            </g>
            <g transform="matrix(144,0,0,144,212.367,252.864)">
                <path d="M0.096,-0.633C0.09,-0.633 0.085,-0.635 0.08,-0.64C0.075,-0.645 0.073,-0.651 0.073,-0.66C0.073,-0.667 0.075,-0.674 0.08,-0.679C0.085,-0.684 0.09,-0.686 0.096,-0.686C0.102,-0.686 0.107,-0.684 0.112,-0.679C0.117,-0.674 0.119,-0.667 0.119,-0.66C0.119,-0.651 0.117,-0.645 0.112,-0.64C0.107,-0.635 0.101,-0.633 0.096,-0.633ZM0.085,-0L0.085,-0.483L0.107,-0.483L0.107,-0L0.085,-0Z" style="fill-rule:nonzero;"/>
            </g>
            <g transform="matrix(144,0,0,144,240.015,252.864)">
                <path d="M0.303,-0.046C0.279,-0.005 0.245,0.016 0.2,0.016C0.177,0.016 0.156,0.01 0.138,-0.003C0.119,-0.016 0.104,-0.033 0.091,-0.056C0.078,-0.079 0.069,-0.106 0.062,-0.138C0.055,-0.169 0.052,-0.204 0.052,-0.241C0.052,-0.279 0.055,-0.314 0.062,-0.345C0.068,-0.376 0.077,-0.404 0.09,-0.427C0.103,-0.45 0.118,-0.467 0.137,-0.48C0.156,-0.493 0.177,-0.499 0.201,-0.499C0.224,-0.499 0.244,-0.494 0.261,-0.484C0.278,-0.474 0.291,-0.46 0.3,-0.442L0.285,-0.428C0.276,-0.445 0.265,-0.458 0.25,-0.467C0.235,-0.476 0.218,-0.48 0.2,-0.48C0.179,-0.48 0.16,-0.474 0.144,-0.462C0.128,-0.449 0.115,-0.432 0.105,-0.411C0.094,-0.39 0.087,-0.365 0.082,-0.336C0.077,-0.307 0.074,-0.275 0.074,-0.241C0.074,-0.208 0.077,-0.177 0.082,-0.148C0.087,-0.119 0.094,-0.094 0.105,-0.073C0.115,-0.052 0.128,-0.035 0.144,-0.023C0.16,-0.01 0.179,-0.004 0.2,-0.004C0.219,-0.004 0.237,-0.009 0.253,-0.02C0.268,-0.03 0.281,-0.044 0.29,-0.062L0.303,-0.046Z" style="fill-rule:nonzero;"/>
            </g>
            <g transform="matrix(144,0,0,144,285.663,252.864)">
                <path d="M0.206,-0.004C0.191,0.003 0.176,0.006 0.16,0.006C0.145,0.006 0.133,0.003 0.124,-0.003C0.115,-0.008 0.107,-0.016 0.102,-0.026C0.097,-0.036 0.093,-0.048 0.092,-0.062C0.09,-0.075 0.089,-0.09 0.089,-0.106L0.089,-0.463L0.024,-0.463L0.024,-0.483L0.089,-0.483L0.089,-0.625L0.111,-0.625L0.111,-0.483L0.199,-0.483L0.199,-0.463L0.111,-0.463L0.111,-0.106C0.111,-0.073 0.115,-0.05 0.123,-0.035C0.13,-0.02 0.144,-0.013 0.163,-0.013C0.169,-0.013 0.175,-0.014 0.183,-0.015C0.19,-0.016 0.196,-0.019 0.201,-0.022L0.206,-0.004Z" style="fill-rule:nonzero;"/>
            </g>
            <g transform="matrix(144,0,0,144,317.055,252.864)">
                <path d="M0.096,-0.633C0.09,-0.633 0.085,-0.635 0.08,-0.64C0.075,-0.645 0.073,-0.651 0.073,-0.66C0.073,-0.667 0.075,-0.674 0.08,-0.679C0.085,-0.684 0.09,-0.686 0.096,-0.686C0.102,-0.686 0.107,-0.684 0.112,-0.679C0.117,-0.674 0.119,-0.667 0.119,-0.66C0.119,-0.651 0.117,-0.645 0.112,-0.64C0.107,-0.635 0.101,-0.633 0.096,-0.633ZM0.085,-0L0.085,-0.483L0.107,-0.483L0.107,-0L0.085,-0Z" style="fill-rule:nonzero;"/>
            </g>
            <g transform="matrix(144,0,0,144,344.703,252.864)">
                <path d="M0.354,-0.241C0.354,-0.204 0.35,-0.169 0.344,-0.138C0.337,-0.106 0.327,-0.079 0.314,-0.056C0.301,-0.033 0.285,-0.016 0.266,-0.003C0.247,0.01 0.226,0.016 0.203,0.016C0.18,0.016 0.159,0.01 0.14,-0.003C0.121,-0.016 0.106,-0.033 0.093,-0.056C0.08,-0.079 0.069,-0.106 0.063,-0.138C0.056,-0.169 0.052,-0.204 0.052,-0.241C0.052,-0.279 0.055,-0.314 0.062,-0.345C0.069,-0.376 0.078,-0.404 0.091,-0.427C0.104,-0.45 0.12,-0.467 0.139,-0.48C0.158,-0.493 0.179,-0.499 0.203,-0.499C0.226,-0.499 0.247,-0.493 0.266,-0.48C0.285,-0.467 0.301,-0.45 0.314,-0.427C0.327,-0.404 0.337,-0.376 0.344,-0.345C0.35,-0.314 0.354,-0.279 0.354,-0.241ZM0.332,-0.241C0.332,-0.275 0.329,-0.307 0.324,-0.336C0.318,-0.365 0.31,-0.39 0.299,-0.411C0.288,-0.432 0.275,-0.449 0.259,-0.462C0.242,-0.474 0.224,-0.48 0.203,-0.48C0.182,-0.48 0.163,-0.474 0.147,-0.462C0.13,-0.449 0.117,-0.432 0.106,-0.411C0.095,-0.39 0.087,-0.365 0.082,-0.336C0.077,-0.307 0.074,-0.275 0.074,-0.241C0.074,-0.208 0.077,-0.177 0.082,-0.148C0.087,-0.119 0.095,-0.094 0.106,-0.073C0.117,-0.052 0.13,-0.035 0.147,-0.023C0.163,-0.01 0.182,-0.004 0.203,-0.004C0.224,-0.004 0.243,-0.01 0.259,-0.023C0.275,-0.035 0.289,-0.052 0.3,-0.073C0.311,-0.094 0.319,-0.119 0.324,-0.148C0.329,-0.177 0.332,-0.208 0.332,-0.241Z" style="fill-rule:nonzero;"/>
            </g>
            <g transform="matrix(144,0,0,144,403.167,252.864)">
                <path d="M0.11,-0.361C0.117,-0.403 0.132,-0.436 0.154,-0.462C0.176,-0.487 0.204,-0.499 0.237,-0.499C0.263,-0.499 0.284,-0.493 0.299,-0.482C0.314,-0.47 0.325,-0.455 0.333,-0.438C0.341,-0.42 0.346,-0.401 0.349,-0.38C0.351,-0.359 0.352,-0.339 0.352,-0.32L0.352,-0L0.33,-0L0.33,-0.32C0.33,-0.337 0.329,-0.355 0.327,-0.374C0.325,-0.393 0.321,-0.41 0.314,-0.426C0.307,-0.441 0.298,-0.454 0.286,-0.464C0.273,-0.474 0.257,-0.479 0.237,-0.479C0.216,-0.479 0.197,-0.473 0.181,-0.461C0.165,-0.448 0.152,-0.432 0.141,-0.413C0.13,-0.394 0.122,-0.372 0.117,-0.349C0.112,-0.325 0.109,-0.302 0.109,-0.28L0.109,-0L0.087,-0L0.087,-0.361C0.087,-0.369 0.087,-0.379 0.087,-0.39L0.085,-0.457C0.084,-0.468 0.084,-0.476 0.083,-0.483L0.105,-0.483C0.106,-0.476 0.106,-0.468 0.107,-0.457C0.107,-0.446 0.107,-0.435 0.108,-0.424C0.108,-0.412 0.108,-0.401 0.108,-0.39L0.108,-0.361L0.11,-0.361Z" style="fill-rule:nonzero;"/>
            </g>
            <g transform="matrix(144,0,0,144,465.519,252.864)">
                <path d="M0.303,-0.11C0.303,-0.091 0.304,-0.072 0.305,-0.051C0.306,-0.03 0.308,-0.013 0.309,-0L0.288,-0C0.287,-0.007 0.287,-0.015 0.286,-0.026C0.285,-0.036 0.285,-0.047 0.285,-0.058C0.284,-0.068 0.284,-0.079 0.284,-0.089C0.283,-0.099 0.283,-0.108 0.283,-0.115L0.281,-0.115C0.272,-0.071 0.256,-0.039 0.235,-0.018C0.214,0.003 0.188,0.013 0.159,0.013C0.146,0.013 0.133,0.01 0.12,0.005C0.107,-0 0.095,-0.009 0.084,-0.021C0.073,-0.032 0.065,-0.047 0.059,-0.064C0.052,-0.081 0.049,-0.102 0.049,-0.126C0.049,-0.16 0.055,-0.187 0.067,-0.208C0.079,-0.229 0.094,-0.245 0.112,-0.257C0.13,-0.268 0.149,-0.276 0.17,-0.28C0.191,-0.283 0.209,-0.285 0.226,-0.285L0.281,-0.285L0.281,-0.323C0.281,-0.377 0.272,-0.417 0.253,-0.442C0.234,-0.467 0.209,-0.479 0.178,-0.479C0.159,-0.479 0.141,-0.474 0.125,-0.464C0.108,-0.453 0.094,-0.439 0.083,-0.422L0.068,-0.436C0.08,-0.455 0.096,-0.471 0.117,-0.482C0.138,-0.493 0.158,-0.499 0.178,-0.499C0.217,-0.499 0.248,-0.485 0.27,-0.456C0.292,-0.427 0.303,-0.383 0.303,-0.322L0.303,-0.11ZM0.281,-0.265L0.232,-0.265C0.214,-0.265 0.196,-0.263 0.177,-0.26C0.158,-0.257 0.14,-0.25 0.125,-0.24C0.109,-0.23 0.096,-0.216 0.086,-0.198C0.076,-0.18 0.071,-0.156 0.071,-0.126C0.071,-0.104 0.074,-0.086 0.08,-0.071C0.085,-0.056 0.092,-0.043 0.101,-0.034C0.11,-0.025 0.119,-0.018 0.13,-0.014C0.141,-0.009 0.151,-0.007 0.161,-0.007C0.184,-0.007 0.204,-0.014 0.219,-0.027C0.234,-0.04 0.247,-0.056 0.256,-0.077C0.265,-0.098 0.272,-0.121 0.276,-0.146C0.279,-0.17 0.281,-0.195 0.281,-0.218L0.281,-0.265Z" style="fill-rule:nonzero;"/>
            </g>
            <g transform="matrix(144,0,0,144,519.951,252.864)">
                <path d="M0.087,-0.361C0.087,-0.369 0.087,-0.379 0.087,-0.39L0.085,-0.457C0.084,-0.468 0.084,-0.476 0.083,-0.483L0.105,-0.483C0.106,-0.476 0.106,-0.468 0.107,-0.458C0.107,-0.447 0.107,-0.436 0.108,-0.425C0.108,-0.413 0.108,-0.402 0.108,-0.391L0.108,-0.363L0.111,-0.363C0.12,-0.41 0.135,-0.444 0.155,-0.464C0.174,-0.483 0.196,-0.493 0.22,-0.493C0.225,-0.493 0.229,-0.493 0.232,-0.492L0.232,-0.472C0.231,-0.473 0.229,-0.473 0.226,-0.473L0.22,-0.473C0.201,-0.473 0.185,-0.466 0.171,-0.453C0.157,-0.44 0.146,-0.422 0.137,-0.401C0.128,-0.38 0.121,-0.356 0.116,-0.33C0.111,-0.303 0.109,-0.277 0.109,-0.25L0.109,-0L0.087,-0L0.087,-0.361Z" style="fill-rule:nonzero;"/>
            </g>
            <g transform="matrix(144,0,0,144,553.935,252.864)">
                <path d="M0.144,0.146C0.135,0.18 0.124,0.204 0.111,0.219C0.098,0.233 0.08,0.24 0.059,0.24C0.046,0.24 0.035,0.238 0.026,0.233L0.029,0.214C0.032,0.215 0.037,0.217 0.043,0.218C0.048,0.219 0.054,0.22 0.059,0.22C0.08,0.22 0.094,0.211 0.104,0.194C0.113,0.177 0.12,0.154 0.127,0.126L0.154,0.011L0.024,-0.483L0.047,-0.483L0.165,-0.023L0.167,-0.023L0.281,-0.483L0.303,-0.483L0.144,0.146Z" style="fill-rule:nonzero;"/>
            </g>
        </g>
    </g>
</svg>
