<?xml version="1.0" encoding="UTF-8" standalone="no"?>
<!DOCTYPE svg PUBLIC "-//W3C//DTD SVG 1.1//EN" "http://www.w3.org/Graphics/SVG/1.1/DTD/svg11.dtd">
<svg width="100%" height="100%" viewBox="0 0 460 145" version="1.1" xmlns="http://www.w3.org/2000/svg" xmlns:xlink="http://www.w3.org/1999/xlink" xml:space="preserve" xmlns:serif="http://www.serif.com/" style="fill-rule:evenodd;clip-rule:evenodd;stroke-linejoin:round;stroke-miterlimit:2;">
    <g id="Artboard1" transform="matrix(1,0,0,1,-191.414,-140.897)">
        <rect x="191.414" y="140.897" width="459.797" height="144.373" style="fill:none;"/>
        <g transform="matrix(1,0,0,1,200.414,143.266)">
            <g transform="matrix(156.684,0,0,156.684,0,116.259)">
                <path d="M0.541,-0.35C0.541,-0.028 0.383,-0.015 0.281,-0.015L0.237,-0.015L0.237,-0.689L0.281,-0.689C0.385,-0.689 0.541,-0.667 0.541,-0.35ZM0.689,-0.35C0.689,-0.643 0.48,-0.704 0.281,-0.704L0.041,-0.704L0.041,-0.689C0.085,-0.689 0.112,-0.638 0.112,-0.576L0.112,-0.128C0.112,-0.06 0.084,-0.015 0.041,-0.015L0.041,-0L0.281,-0C0.48,-0 0.689,-0.052 0.689,-0.35Z" style="fill-rule:nonzero;"/>
            </g>
            <g transform="matrix(156.684,0,0,156.684,115.162,116.259)">
                <path d="M0.148,-0.255C0.148,-0.366 0.2,-0.456 0.258,-0.456C0.309,-0.456 0.362,-0.391 0.362,-0.255L0.148,-0.255ZM0.436,-0.127C0.414,-0.079 0.339,-0.051 0.281,-0.06C0.209,-0.071 0.154,-0.124 0.148,-0.24L0.466,-0.24C0.466,-0.397 0.393,-0.471 0.262,-0.471C0.131,-0.471 0.036,-0.372 0.036,-0.228C0.036,-0.103 0.126,0.009 0.253,0.009C0.379,0.009 0.437,-0.071 0.45,-0.12L0.436,-0.127Z" style="fill-rule:nonzero;"/>
            </g>
            <g transform="matrix(156.684,0,0,156.684,194.601,116.259)">
                <path d="M0.52,-0.008C0.484,-0.017 0.479,-0.046 0.479,-0.101L0.479,-0.462L0.189,-0.462L0.189,-0.499C0.189,-0.725 0.295,-0.73 0.329,-0.73C0.389,-0.73 0.418,-0.696 0.396,-0.692C0.38,-0.69 0.366,-0.68 0.357,-0.665C0.339,-0.636 0.349,-0.598 0.378,-0.58C0.408,-0.562 0.447,-0.571 0.464,-0.601C0.476,-0.621 0.473,-0.65 0.466,-0.672C0.452,-0.712 0.397,-0.745 0.329,-0.745C0.17,-0.745 0.084,-0.678 0.084,-0.479L0.084,-0.462L0.018,-0.462L0.02,-0.447L0.084,-0.447L0.084,-0.099C0.084,-0.048 0.082,-0.018 0.044,-0.008L0.044,-0L0.234,-0L0.234,-0.008C0.199,-0.016 0.189,-0.044 0.189,-0.099L0.189,-0.447L0.323,-0.447C0.361,-0.447 0.373,-0.408 0.373,-0.373L0.373,-0.101C0.373,-0.05 0.371,-0.019 0.333,-0.008L0.333,-0L0.52,-0L0.52,-0.008Z" style="fill-rule:nonzero;"/>
            </g>
            <g transform="matrix(156.684,0,0,156.684,282.03,116.259)">
                <path d="M0.499,-0.015C0.463,-0.024 0.458,-0.052 0.458,-0.107L0.458,-0.315C0.458,-0.436 0.405,-0.471 0.326,-0.471C0.263,-0.471 0.188,-0.425 0.166,-0.365L0.166,-0.471L0.01,-0.437L0.01,-0.422C0.051,-0.405 0.06,-0.393 0.06,-0.358L0.06,-0.106C0.06,-0.055 0.059,-0.026 0.021,-0.015L0.021,-0L0.207,-0L0.207,-0.015C0.172,-0.025 0.166,-0.051 0.166,-0.106L0.166,-0.326C0.17,-0.364 0.215,-0.41 0.26,-0.41C0.318,-0.41 0.352,-0.37 0.352,-0.312L0.352,-0.107C0.352,-0.056 0.35,-0.026 0.312,-0.015L0.312,-0L0.499,-0L0.499,-0.015Z" style="fill-rule:nonzero;"/>
            </g>
            <g transform="matrix(156.684,0,0,156.684,363.349,116.259)">
                <path d="M0.148,-0.255C0.148,-0.366 0.2,-0.456 0.258,-0.456C0.309,-0.456 0.362,-0.391 0.362,-0.255L0.148,-0.255ZM0.436,-0.127C0.414,-0.079 0.339,-0.051 0.281,-0.06C0.209,-0.071 0.154,-0.124 0.148,-0.24L0.466,-0.24C0.466,-0.397 0.393,-0.471 0.262,-0.471C0.131,-0.471 0.036,-0.372 0.036,-0.228C0.036,-0.103 0.126,0.009 0.253,0.009C0.379,0.009 0.437,-0.071 0.45,-0.12L0.436,-0.127Z" style="fill-rule:nonzero;"/>
            </g>
        </g>
    </g>
</svg>
